<?xml version="1.0" encoding="UTF-8" standalone="no"?>
<svg
   viewBox="0 0 24 24"
   version="1.1"
   id="svg9"
   sodipodi:docname="down-block-bracket.svg"
   inkscape:version="1.1.1 (3bf5ae0d25, 2021-09-20)"
   xmlns:inkscape="http://www.inkscape.org/namespaces/inkscape"
   xmlns:sodipodi="http://sodipodi.sourceforge.net/DTD/sodipodi-0.dtd"
   xmlns="http://www.w3.org/2000/svg"
   xmlns:svg="http://www.w3.org/2000/svg">
  <defs
     id="defs13" />
  <sodipodi:namedview
     id="namedview11"
     pagecolor="#ffffff"
     bordercolor="#666666"
     borderopacity="1.0"
     inkscape:pageshadow="2"
     inkscape:pageopacity="0.0"
     inkscape:pagecheckerboard="0"
     showgrid="false"
     inkscape:zoom="36.375"
     inkscape:cx="12"
     inkscape:cy="11.986254"
     inkscape:window-width="3840"
     inkscape:window-height="2066"
     inkscape:window-x="-11"
     inkscape:window-y="-11"
     inkscape:window-maximized="1"
     inkscape:current-layer="svg9" />
  <title
     id="title2">Artboard-143</title>
  <g
     id="Download-3"
     data-name="Download">
    <path
       d="M21,22H3a1,1,0,0,1-1-1V17a1,1,0,0,1,2,0v3H20V17a1,1,0,0,1,2,0v4A1,1,0,0,1,21,22Z"
       style="fill:#1c1b1e"
       id="path4" />
    <path
       d="M12,19a1,1,0,0,1-.707-.293l-7-7A1,1,0,0,1,5,10H8V3A1,1,0,0,1,9,2h6a1,1,0,0,1,1,1v7h3a1,1,0,0,1,.707,1.707l-7,7A1,1,0,0,1,12,19ZM7.414,12,12,16.586,16.586,12H15a1,1,0,0,1-1-1V4H10v7a1,1,0,0,1-1,1Z"
       style="fill:#1c1b1e"
       id="path6" />
  </g>
</svg>
