<?xml version="1.0" encoding="UTF-8" standalone="no"?>
<svg
   viewBox="0 0 24 24"
   version="1.1"
   id="svg7"
   sodipodi:docname="down-block.svg"
   inkscape:version="1.1.1 (3bf5ae0d25, 2021-09-20)"
   xmlns:inkscape="http://www.inkscape.org/namespaces/inkscape"
   xmlns:sodipodi="http://sodipodi.sourceforge.net/DTD/sodipodi-0.dtd"
   xmlns="http://www.w3.org/2000/svg"
   xmlns:svg="http://www.w3.org/2000/svg">
  <defs
     id="defs11" />
  <sodipodi:namedview
     id="namedview9"
     pagecolor="#ffffff"
     bordercolor="#666666"
     borderopacity="1.0"
     inkscape:pageshadow="2"
     inkscape:pageopacity="0.0"
     inkscape:pagecheckerboard="0"
     showgrid="false"
     inkscape:zoom="36.375"
     inkscape:cx="12"
     inkscape:cy="11.986254"
     inkscape:window-width="3840"
     inkscape:window-height="2066"
     inkscape:window-x="-11"
     inkscape:window-y="-11"
     inkscape:window-maximized="1"
     inkscape:current-layer="svg7" />
  <title
     id="title2">Artboard-11</title>
  <g
     id="Down-3"
     data-name="Down">
    <path
       d="M19.924,13.617A1,1,0,0,0,19,13H16V3a1,1,0,0,0-1-1H9A1,1,0,0,0,8,3V13H5a1,1,0,0,0-.707,1.707l7,7a1,1,0,0,0,1.414,0l7-7A1,1,0,0,0,19.924,13.617ZM12,19.586,7.414,15H9a1,1,0,0,0,1-1V4h4V14a1,1,0,0,0,1,1h1.586Z"
       style="fill:#1c1b1e"
       id="path4" />
  </g>
</svg>
