<?xml version="1.0" encoding="UTF-8" standalone="no"?>
<!-- Generator: Adobe Illustrator 16.0.3, SVG Export Plug-In . SVG Version: 6.00 Build 0)  -->

<svg
   version="1.2"
   x="0px"
   y="0px"
   width="256px"
   height="256px"
   viewBox="0 0 256 256"
   xml:space="preserve"
   id="svg1628"
   sodipodi:docname="reshot-pdf-swissKnife.svg"
   inkscape:version="1.1.1 (3bf5ae0d25, 2021-09-20)"
   xmlns:inkscape="http://www.inkscape.org/namespaces/inkscape"
   xmlns:sodipodi="http://sodipodi.sourceforge.net/DTD/sodipodi-0.dtd"
   xmlns="http://www.w3.org/2000/svg"
   xmlns:svg="http://www.w3.org/2000/svg"><defs
   id="defs1632">
	
	
</defs><sodipodi:namedview
   id="namedview1630"
   pagecolor="#ffffff"
   bordercolor="#666666"
   borderopacity="1.0"
   inkscape:pageshadow="2"
   inkscape:pageopacity="0.0"
   inkscape:pagecheckerboard="0"
   showgrid="false"
   inkscape:zoom="3.4101562"
   inkscape:cx="127.85338"
   inkscape:cy="157.47079"
   inkscape:window-width="3840"
   inkscape:window-height="2066"
   inkscape:window-x="-11"
   inkscape:window-y="-11"
   inkscape:window-maximized="1"
   inkscape:current-layer="svg1628" />


<g
   id="g54"><g
     id="g859"
     transform="matrix(2.7545383,-2.7545383,2.7545383,2.7545383,-169.97384,98.471699)"><path
       fill="#9dabaa"
       d="m 18.899,43.419 c 0,0 13.813,-5.919 32.461,2.413 18.648,8.332 18.648,8.332 18.648,8.332 l -18.381,2.514 z"
       id="path845" /><path
       fill="#c8c9ce"
       d="M 49.868,45.223 C 31.981,37.847 18.899,43.451 18.899,43.451 l 30.969,12.545 z"
       id="path847" /><path
       fill="#9dabaa"
       d="M 85.763,62.842 51.205,29.89 c 0,0 -2.277,-0.548 -2.727,0.653 -0.641,1.706 -0.602,4.484 -0.335,6.357 l 2.415,0.098 -0.098,2.107 2.532,0.35 -0.18,1.898 2.343,0.164 -0.526,1.569 2.322,0.282 -0.283,1.662 2.322,0.282 -0.252,1.692 2.171,0.276 -0.384,1.428 2.187,0.291 -0.37,1.442 2.249,0.213 -0.302,1.642 2.177,0.144 -0.591,1.368 2.165,0.408 -0.362,1.31 c 0,0 12.422,11.293 13.837,10.021 1.414,-1.271 4.248,-2.705 4.248,-2.705 z"
       id="path849" /><path
       fill="#c0321f"
       d="m 88.842,62.14 c 0,4.471 -4.125,8.095 -9.214,8.095 H 20.372 c -5.089,0 -9.214,-3.624 -9.214,-8.095 V 59.3 c 0,-4.47 4.125,-8.095 9.214,-8.095 h 59.257 c 5.088,0 9.214,3.625 9.214,8.095 v 2.84 z"
       id="path851" /><path
       fill="#e33e30"
       d="M 50,51.206 H 20.747 c -5.295,0 -9.589,3.625 -9.589,8.095 v 2.84 c 0,4.471 4.294,8.095 9.589,8.095 H 50 Z"
       id="path853" /><rect
       x="20.743"
       y="55.056999"
       fill="#d9edf3"
       width="4.1810002"
       height="11.559"
       id="rect855" /><rect
       x="16.254999"
       y="58.999001"
       fill="#d9edf3"
       width="13.156"
       height="3.6730001"
       id="rect857" /></g><g
     id="g1079"
     transform="matrix(1.0575866,-1.0575866,1.0575866,1.0575866,-412.25295,3.6502876)"><path
       fill="#ffffff"
       d="m 263.02864,330.87401 c 0,5.5 -4.5,10 -10,10 h -92 c -5.5,0 -10,-4.5 -10,-10 v -26 c 0,-5.5 4.5,-10 10,-10 h 92 c 5.5,0 10,4.5 10,10 z"
       id="path1558-6" /><path
       fill="none"
       stroke="#ee5325"
       stroke-width="4"
       stroke-linecap="round"
       stroke-linejoin="round"
       stroke-miterlimit="10"
       d="m 263.02864,330.87401 c 0,5.5 -4.5,10 -10,10 h -92 c -5.5,0 -10,-4.5 -10,-10 v -26 c 0,-5.5 4.5,-10 10,-10 h 92 c 5.5,0 10,4.5 10,10 z"
       id="path1560-6" /><path
       fill="none"
       stroke="#ee5325"
       stroke-width="4"
       stroke-linecap="round"
       stroke-linejoin="round"
       stroke-miterlimit="10"
       d="m 206.03564,303.87401 h -7.007 v 27.984 1.016 h 7.007 c 4.903,0 7.993,-4.137 7.993,-9.04 v -11.59 c 0,-4.903 -3.09,-8.37 -7.993,-8.37 z"
       id="path1564-1" /><line
       fill="none"
       stroke="#ee5325"
       stroke-width="4"
       stroke-linecap="round"
       stroke-linejoin="round"
       stroke-miterlimit="10"
       x1="176.02864"
       y1="303.87402"
       x2="176.02864"
       y2="331.87402"
       id="line1566-4" /><path
       fill="none"
       stroke="#ee5325"
       stroke-width="4"
       stroke-linecap="round"
       stroke-linejoin="round"
       stroke-miterlimit="10"
       d="m 176.02864,303.87401 h 12.152 c 2.092,0 2.848,0.538 2.848,2.631 v 5.707 c 0,2.092 -0.756,3.662 -2.848,3.662 h -12.152"
       id="path1568-3" /><line
       fill="none"
       stroke="#ee5325"
       stroke-width="4"
       stroke-linecap="round"
       stroke-linejoin="round"
       stroke-miterlimit="10"
       x1="222.02863"
       y1="303.87402"
       x2="222.02863"
       y2="331.87402"
       id="line1570-1" /><polyline
       fill="none"
       stroke="#ee5325"
       stroke-width="4"
       stroke-linecap="round"
       stroke-linejoin="round"
       stroke-miterlimit="10"
       points="       133,96 118,96 118,108 133,108      "
       id="polyline1572-0"
       transform="translate(104.02864,207.87401)" /></g></g></svg>
