<?xml version="1.0" encoding="UTF-8" standalone="no"?>
<svg
   width="24px"
   height="24px"
   viewBox="0 0 24 24"
   version="1.1"
   id="svg834"
   sodipodi:docname="sort.svg"
   inkscape:version="1.1.1 (3bf5ae0d25, 2021-09-20)"
   xmlns:inkscape="http://www.inkscape.org/namespaces/inkscape"
   xmlns:sodipodi="http://sodipodi.sourceforge.net/DTD/sodipodi-0.dtd"
   xmlns="http://www.w3.org/2000/svg"
   xmlns:svg="http://www.w3.org/2000/svg">
  <defs
     id="defs838" />
  <sodipodi:namedview
     id="namedview836"
     pagecolor="#ffffff"
     bordercolor="#666666"
     borderopacity="1.0"
     inkscape:pageshadow="2"
     inkscape:pageopacity="0.0"
     inkscape:pagecheckerboard="0"
     showgrid="false"
     inkscape:zoom="76.166667"
     inkscape:cx="11.993435"
     inkscape:cy="12"
     inkscape:window-width="3840"
     inkscape:window-height="2066"
     inkscape:window-x="-11"
     inkscape:window-y="-11"
     inkscape:window-maximized="1"
     inkscape:current-layer="svg834" />
  <path
     d="M19.707 14.707A1 1 0 0 0 19 13h-7v2h4.586l-4.293 4.293A1 1 0 0 0 13 21h7v-2h-4.586l4.293-4.293zM7 3.99H5v12H2l4 4 4-4H7zM17 3h-2c-.417 0-.79.259-.937.649l-2.75 7.333h2.137L14.193 9h3.613l.743 1.981h2.137l-2.75-7.333A1 1 0 0 0 17 3zm-2.057 4 .75-2h.613l.75 2h-2.113z"
     id="path832" />
</svg>
