<?xml version="1.0" encoding="UTF-8" standalone="no"?>
<svg
   viewBox="0 0 24 24"
   version="1.1"
   id="svg9"
   sodipodi:docname="up-block-bracket.svg"
   inkscape:version="1.1.1 (3bf5ae0d25, 2021-09-20)"
   xmlns:inkscape="http://www.inkscape.org/namespaces/inkscape"
   xmlns:sodipodi="http://sodipodi.sourceforge.net/DTD/sodipodi-0.dtd"
   xmlns="http://www.w3.org/2000/svg"
   xmlns:svg="http://www.w3.org/2000/svg"
   xmlns:rdf="http://www.w3.org/1999/02/22-rdf-syntax-ns#"
   xmlns:cc="http://creativecommons.org/ns#"
   xmlns:dc="http://purl.org/dc/elements/1.1/">
  <defs
     id="defs13" />
  <sodipodi:namedview
     id="namedview11"
     pagecolor="#ffffff"
     bordercolor="#666666"
     borderopacity="1.0"
     inkscape:pageshadow="2"
     inkscape:pageopacity="0.0"
     inkscape:pagecheckerboard="0"
     showgrid="false"
     inkscape:zoom="36.375"
     inkscape:cx="12"
     inkscape:cy="11.986254"
     inkscape:window-width="3840"
     inkscape:window-height="2066"
     inkscape:window-x="-11"
     inkscape:window-y="-11"
     inkscape:window-maximized="1"
     inkscape:current-layer="svg9" />
  <title
     id="title2">Artboard-143</title>
  <g
     id="Download-3"
     data-name="Download"
     transform="matrix(1,0,0,-1,0,24)">
    <path
       d="M 21,22 H 3 A 1,1 0 0 1 2,21 v -4 a 1,1 0 0 1 2,0 v 3 h 16 v -3 a 1,1 0 0 1 2,0 v 4 a 1,1 0 0 1 -1,1 z"
       style="fill:#1c1b1e"
       id="path4" />
    <path
       d="m 12,19 a 1,1 0 0 1 -0.707,-0.293 l -7,-7 A 1,1 0 0 1 5,10 H 8 V 3 A 1,1 0 0 1 9,2 h 6 a 1,1 0 0 1 1,1 v 7 h 3 a 1,1 0 0 1 0.707,1.707 l -7,7 A 1,1 0 0 1 12,19 Z M 7.414,12 12,16.586 16.586,12 H 15 A 1,1 0 0 1 14,11 V 4 h -4 v 7 a 1,1 0 0 1 -1,1 z"
       style="fill:#1c1b1e"
       id="path6" />
  </g>
  <metadata
     id="metadata837">
    <rdf:RDF>
      <cc:Work
         rdf:about="">
        <dc:title>Artboard-143</dc:title>
      </cc:Work>
    </rdf:RDF>
  </metadata>
</svg>
