<?xml version="1.0" encoding="UTF-8" standalone="no"?>
<svg
   viewBox="0 0 24 24"
   version="1.1"
   id="svg7"
   sodipodi:docname="up-block.svg"
   inkscape:version="1.1.1 (3bf5ae0d25, 2021-09-20)"
   xmlns:inkscape="http://www.inkscape.org/namespaces/inkscape"
   xmlns:sodipodi="http://sodipodi.sourceforge.net/DTD/sodipodi-0.dtd"
   xmlns="http://www.w3.org/2000/svg"
   xmlns:svg="http://www.w3.org/2000/svg">
  <defs
     id="defs11" />
  <sodipodi:namedview
     id="namedview9"
     pagecolor="#ffffff"
     bordercolor="#666666"
     borderopacity="1.0"
     inkscape:pageshadow="2"
     inkscape:pageopacity="0.0"
     inkscape:pagecheckerboard="0"
     showgrid="false"
     inkscape:zoom="36.375"
     inkscape:cx="12"
     inkscape:cy="11.986254"
     inkscape:window-width="3840"
     inkscape:window-height="2066"
     inkscape:window-x="-11"
     inkscape:window-y="-11"
     inkscape:window-maximized="1"
     inkscape:current-layer="svg7" />
  <title
     id="title2">Artboard-11</title>
  <g
     id="Down-3"
     data-name="Down"
     transform="rotate(180,12.000164,11.999893)">
    <path
       d="M 19.924,13.617 A 1,1 0 0 0 19,13 H 16 V 3 A 1,1 0 0 0 15,2 H 9 A 1,1 0 0 0 8,3 V 13 H 5 a 1,1 0 0 0 -0.707,1.707 l 7,7 a 1,1 0 0 0 1.414,0 l 7,-7 a 1,1 0 0 0 0.217,-1.09 z M 12,19.586 7.414,15 H 9 a 1,1 0 0 0 1,-1 V 4 h 4 v 10 a 1,1 0 0 0 1,1 h 1.586 z"
       style="fill:#1c1b1e"
       id="path4" />
  </g>
</svg>
